<?xml version="1.0" encoding="UTF-8" standalone="no"?>
<!DOCTYPE svg PUBLIC "-//W3C//DTD SVG 1.1//EN" "http://www.w3.org/Graphics/SVG/1.1/DTD/svg11.dtd">
<svg xmlns:dc="http://purl.org/dc/elements/1.1/" xmlns:xl="http://www.w3.org/1999/xlink" xmlns="http://www.w3.org/2000/svg" version="1.1" viewBox="0 0 36 36" width="36" height="36">
  <defs/>
  <metadata> Produced by OmniGraffle 8.0\n2025-06-08 13:54:36 +0000</metadata>
  <g id="nr" stroke="none" fill="none" stroke-dasharray="none" stroke-opacity="1" fill-opacity="1">
    <title>nr</title>
    <g id="nr_Layer_1">
      <title>Layer 1</title>
      <g id="Graphic_4">
        <path d="M 2.7820005 9.116002 L 2.7820005 27.108002 C 2.7820005 27.660286 3.2297158 28.108002 3.7820005 28.108002 L 4.3020005 28.108002 C 4.8542853 28.108002 5.3020005 27.660286 5.3020005 27.108002 L 5.3020005 12.064002 L 5.3580005 12.064002 L 15.506174 27.653555 C 15.6907 27.937023 16.006014 28.108002 16.34425 28.108002 L 17.714 28.108002 C 18.266285 28.108002 18.714 27.660286 18.714 27.108002 L 18.714 9.116002 C 18.714 8.563717 18.266285 8.116002 17.714 8.116002 L 17.194 8.116002 C 16.641716 8.116002 16.194 8.563717 16.194 9.116002 L 16.194 24.328002 L 16.138 24.328002 L 5.9057145 8.57137 C 5.721288 8.287372 5.405666 8.116002 5.0670393 8.116002 L 3.7820005 8.116002 C 3.2297158 8.116002 2.7820005 8.563717 2.7820005 9.116002 Z" fill="black"/>
      </g>
      <g id="Graphic_5">
        <path d="M 22.55 14.632002 L 22.55 27.108002 C 22.55 27.660286 22.997716 28.108002 23.55 28.108002 L 23.93 28.108002 C 24.482285 28.108002 24.93 27.660286 24.93 27.108002 L 24.93 21.668002 C 24.93 20.734664 25.023333 19.908672 25.21 19.190002 C 25.396668 18.471331 25.695332 17.860004 26.106 17.356002 C 26.51667 16.852 27.057997 16.469336 27.73 16.208002 C 28.402004 15.946667 29.213996 15.816002 30.166 15.816002 L 30.166 13.296002 C 28.877994 13.258668 27.814005 13.519999 26.974 14.080002 C 26.133996 14.640005 25.42467 15.507996 24.846 16.684002 L 24.79 16.684002 L 24.79 14.632002 C 24.79 14.079717 24.342285 13.632002 23.79 13.632002 L 23.55 13.632002 C 22.997716 13.632002 22.55 14.079717 22.55 14.632002 Z" fill="black"/>
      </g>
      <g id="Graphic_6">
        <path d="M 29.914 26.000002 L 29.914 27.108002 C 29.914 27.660286 30.361716 28.108002 30.914 28.108002 L 32.022 28.108002 C 32.574285 28.108002 33.022 27.660286 33.022 27.108002 L 33.022 26.000002 C 33.022 25.447717 32.574285 25.000002 32.022 25.000002 L 30.914 25.000002 C 30.361716 25.000002 29.914 25.447717 29.914 26.000002 Z" fill="black"/>
      </g>
    </g>
  </g>
</svg>
