<?xml version="1.0" encoding="UTF-8" standalone="no"?>
<!DOCTYPE svg PUBLIC "-//W3C//DTD SVG 1.1//EN" "http://www.w3.org/Graphics/SVG/1.1/DTD/svg11.dtd">
<svg xmlns:dc="http://purl.org/dc/elements/1.1/" xmlns:xl="http://www.w3.org/1999/xlink" xmlns="http://www.w3.org/2000/svg" version="1.1" viewBox="0 0 36 36" width="36" height="36">
  <defs/>
  <metadata> Produced by OmniGraffle 8.0\n2025-06-08 13:54:36 +0000</metadata>
  <g id="question_mark" stroke="none" fill="none" stroke-dasharray="none" stroke-opacity="1" fill-opacity="1">
    <title>question_mark</title>
    <g id="question_mark_Layer_2">
      <title>Layer 2</title>
      <g id="Graphic_3">
        <title>?</title>
        <path d="M 16.32 26.000002 L 16.32 27.108002 C 16.32 27.660287 16.767715 28.108002 17.32 28.108002 L 18.428 28.108002 C 18.980285 28.108002 19.428 27.660287 19.428 27.108002 L 19.428 26.000002 C 19.428 25.447717 18.980285 25.000002 18.428 25.000002 L 17.32 25.000002 C 16.767715 25.000002 16.32 25.447717 16.32 26.000002 Z M 11.756 14.360002 L 14.136 14.360002 C 14.136 13.706665 14.210666 13.100005 14.36 12.540002 C 14.509334 11.979999 14.747332 11.494671 15.074 11.084002 C 15.400668 10.673333 15.806664 10.34667 16.292 10.104002 C 16.777336 9.861334 17.355997 9.740002 18.028 9.740002 C 19.036005 9.740002 19.833997 10.029332 20.422 10.608002 C 21.010003 11.186672 21.341333 11.98933 21.416 13.016002 C 21.453333 13.706672 21.369334 14.294666 21.164 14.780002 C 20.958666 15.265338 20.683335 15.708667 20.338 16.110002 C 19.992665 16.511337 19.619335 16.894 19.218 17.258002 C 18.816665 17.622004 18.434002 18.018666 18.07 18.448002 C 17.705998 18.877337 17.398001 19.367333 17.146 19.918002 C 16.893999 20.468671 16.749333 21.135998 16.712 21.920002 L 16.712 22.578002 C 16.712 22.941405 17.006597 23.236002 17.37 23.236002 L 18.546 23.236002 C 18.847547 23.236002 19.092 22.99155 19.092 22.690002 L 19.092 22.144002 C 19.092 21.658666 19.162 21.22467 19.302 20.842002 C 19.442 20.459333 19.628665 20.10467 19.862 19.778002 C 20.095334 19.451334 20.356665 19.143337 20.646 18.854002 C 20.935335 18.564667 21.229332 18.280003 21.528 18.000002 C 21.826668 17.701334 22.120665 17.393337 22.41 17.076002 C 22.699335 16.758667 22.956 16.413337 23.18 16.040002 C 23.404 15.666667 23.586 15.251338 23.726 14.794002 C 23.866 14.336666 23.936 13.818672 23.936 13.240002 C 23.936 12.343997 23.791335 11.550672 23.502 10.860002 C 23.212665 10.169332 22.80667 9.586004 22.284 9.110002 C 21.76133 8.634 21.14067 8.270003 20.422 8.018002 C 19.70333 7.766001 18.905338 7.640002 18.028 7.640002 C 17.057328 7.640002 16.180004 7.808 15.396 8.144002 C 14.611996 8.480004 13.949336 8.951332 13.408 9.558002 C 12.866664 10.164672 12.451335 10.878665 12.162 11.700002 C 11.872665 12.52134 11.737333 13.407997 11.756 14.360002 Z" fill="black"/>
      </g>
    </g>
  </g>
</svg>
