<?xml version="1.0" encoding="UTF-8" standalone="no"?>
<!DOCTYPE svg PUBLIC "-//W3C//DTD SVG 1.1//EN" "http://www.w3.org/Graphics/SVG/1.1/DTD/svg11.dtd">
<svg xmlns:dc="http://purl.org/dc/elements/1.1/" xmlns:xl="http://www.w3.org/1999/xlink" xmlns="http://www.w3.org/2000/svg" version="1.1" viewBox="0 0 36 36" width="36" height="36">
  <defs/>
  <metadata> Produced by OmniGraffle 8.0\n2025-06-08 13:54:36 +0000</metadata>
  <g id="view" stroke="none" fill="none" stroke-dasharray="none" stroke-opacity="1" fill-opacity="1">
    <title>view</title>
    <g id="view_Layer_2">
      <title>Layer 2</title>
      <g id="Graphic_25">
        <rect x="5.542375" y="5.542375" width="24.91525" height="24.91525" fill="#dadada"/>
        <rect x="5.542375" y="5.542375" width="24.91525" height="24.91525" stroke="black" stroke-linecap="round" stroke-linejoin="round" stroke-width="1"/>
      </g>
      <g id="Group_31">
        <title>Title</title>
        <g id="Graphic_26">
          <path d="M 9.462375 9.417664 L 9.462375 13.157664 C 9.462375 13.367533 9.632507 13.537664 9.842375 13.537664 L 9.842375 13.537664 C 10.052243 13.537664 10.222375 13.367533 10.222375 13.157664 L 10.222375 9.417664 C 10.222375 8.891889 10.6486 8.465664 11.174375 8.465664 L 11.806375 8.465664 C 11.983106 8.465664 12.126375 8.322395 12.126375 8.145664 L 12.126375 8.145664 C 12.126375 7.968933 11.983106 7.825664 11.806375 7.825664 L 7.878375 7.825664 C 7.701644 7.825664 7.558375 7.968933 7.558375 8.145664 L 7.558375 8.145664 C 7.558375 8.322395 7.701644 8.465664 7.878375 8.465664 L 8.510375 8.465664 C 9.03615 8.465664 9.462375 8.891889 9.462375 9.417664 Z" fill="#5e5e5e"/>
        </g>
        <g id="Graphic_27">
          <path d="M 13.366375 8.317664 L 13.366375 8.165664 C 13.366375 7.977888 13.214152 7.825664 13.026375 7.825664 L 13.026375 7.825664 C 12.838598 7.825664 12.686375 7.977888 12.686375 8.165664 L 12.686375 8.317664 C 12.686375 8.505441 12.838598 8.657664 13.026375 8.657664 L 13.026375 8.657664 C 13.214152 8.657664 13.366375 8.505441 13.366375 8.317664 Z M 12.686375 9.741664 L 12.686375 13.197664 C 12.686375 13.385441 12.838598 13.537664 13.026375 13.537664 L 13.026375 13.537664 C 13.214152 13.537664 13.366375 13.385441 13.366375 13.197664 L 13.366375 9.741664 C 13.366375 9.553888 13.214152 9.401664 13.026375 9.401664 L 13.026375 9.401664 C 12.838598 9.401664 12.686375 9.553888 12.686375 9.741664 Z" fill="#5e5e5e"/>
        </g>
        <g id="Graphic_28">
          <path d="M 15.366375 8.989664 L 15.366375 8.501664 C 15.366375 8.313888 15.214152 8.161664 15.026375 8.161664 L 15.026375 8.161664 C 14.838598 8.161664 14.686375 8.313888 14.686375 8.501664 L 14.686375 9.049664 C 14.686375 9.244069 14.52878 9.401664 14.334375 9.401664 L 14.282375 9.401664 C 14.11669 9.401664 13.982375 9.535979 13.982375 9.701664 L 13.982375 9.701664 C 13.982375 9.86735 14.11669 10.001664 14.282375 10.001664 L 14.334375 10.001664 C 14.52878 10.001664 14.686375 10.15926 14.686375 10.353664 L 14.686375 12.633664 C 14.686375 12.825665 14.705042 12.98033 14.742375 13.097664 C 14.779709 13.214998 14.837041 13.305664 14.914375 13.369664 C 14.991709 13.433665 15.093041 13.477664 15.218375 13.501664 C 15.343709 13.525664 15.494374 13.537664 15.670375 13.537664 L 15.930375 13.537664 C 16.07397 13.537664 16.190375 13.421258 16.190375 13.277664 L 16.190375 13.093664 C 16.190375 13.007508 16.120531 12.937664 16.034375 12.937664 L 15.878375 12.937664 C 15.771708 12.937664 15.685042 12.933664 15.618375 12.925664 C 15.551708 12.917664 15.499709 12.900331 15.462375 12.873664 C 15.425042 12.846998 15.399708 12.809665 15.386375 12.761664 C 15.373042 12.713664 15.366375 12.649665 15.366375 12.569664 L 15.366375 10.413664 C 15.366375 10.186123 15.550834 10.001664 15.778375 10.001664 L 15.890375 10.001664 C 16.05606 10.001664 16.190375 9.86735 16.190375 9.701664 L 16.190375 9.701664 C 16.190375 9.535979 16.05606 9.401664 15.890375 9.401664 L 15.778375 9.401664 C 15.550834 9.401664 15.366375 9.217206 15.366375 8.989664 Z" fill="#5e5e5e"/>
        </g>
        <g id="Graphic_29">
          <path d="M 16.982375 8.165664 L 16.982375 13.197664 C 16.982375 13.385441 17.134598 13.537664 17.322375 13.537664 L 17.322375 13.537664 C 17.510152 13.537664 17.662375 13.385441 17.662375 13.197664 L 17.662375 8.165664 C 17.662375 7.977888 17.510152 7.825664 17.322375 7.825664 L 17.322375 7.825664 C 17.134598 7.825664 16.982375 7.977888 16.982375 8.165664 Z" fill="#5e5e5e"/>
        </g>
        <g id="Graphic_30">
          <path d="M 21.590375 11.073664 L 19.214375 11.073664 C 19.225042 10.913664 19.259708 10.762998 19.318375 10.621664 C 19.377042 10.48033 19.457041 10.356332 19.558375 10.249664 C 19.65971 10.142997 19.78104 10.058998 19.922375 9.997664 C 20.06371 9.936331 20.222374 9.905664 20.398375 9.905664 C 20.569043 9.905664 20.72504 9.936331 20.866375 9.997664 C 21.00771 10.058998 21.130375 10.141664 21.234375 10.245664 C 21.338376 10.349665 21.421041 10.473664 21.482375 10.617664 C 21.543709 10.761665 21.579708 10.913664 21.590375 11.073664 Z M 22.246375 12.225664 L 21.574375 12.225664 C 21.515708 12.497666 21.394376 12.70033 21.210375 12.833664 C 21.026374 12.966998 20.790376 13.033664 20.502375 13.033664 C 20.278374 13.033664 20.08371 12.996331 19.918375 12.921664 C 19.75304 12.846997 19.617042 12.746998 19.510375 12.621664 C 19.403708 12.49633 19.326375 12.352332 19.278375 12.189664 C 19.230375 12.026997 19.209042 11.854999 19.214375 11.673664 L 22.310375 11.673664 C 22.321042 11.422996 22.298375 11.158999 22.242375 10.881664 C 22.186375 10.60433 22.085042 10.348332 21.938375 10.113664 C 21.791708 9.878997 21.597043 9.685665 21.354375 9.533664 C 21.111707 9.381664 20.806377 9.305664 20.438375 9.305664 C 20.155707 9.305664 19.89571 9.358997 19.658375 9.465664 C 19.42104 9.572332 19.21571 9.721663 19.042375 9.913664 C 18.86904 10.105665 18.734376 10.33233 18.638375 10.593664 C 18.542375 10.854999 18.494375 11.142996 18.494375 11.457664 C 18.505042 11.772333 18.551708 12.062996 18.634375 12.329664 C 18.717042 12.596332 18.84104 12.825663 19.006375 13.017664 C 19.17171 13.209665 19.375707 13.358997 19.618375 13.465664 C 19.861043 13.572332 20.147707 13.625664 20.478375 13.625664 C 20.94771 13.625664 21.33704 13.508332 21.646375 13.273664 C 21.95571 13.038997 22.155708 12.689667 22.246375 12.225664 Z" fill="#5e5e5e"/>
        </g>
      </g>
      <g id="Line_32">
        <line x1="5.542375" y1="30.51948" x2="30.457625" y2="5.2875696" stroke="white" stroke-linecap="round" stroke-linejoin="round" stroke-width="1"/>
      </g>
      <g id="Line_35">
        <line x1="22.502375" y1="16.290081" x2="28.86879" y2="16.290081" stroke="#212121" stroke-linecap="round" stroke-linejoin="round" stroke-width="2"/>
      </g>
      <g id="Line_34">
        <line x1="10.528267" y1="28.380286" x2="28.86879" y2="28.380286" stroke="#212121" stroke-linecap="round" stroke-linejoin="round" stroke-width="2"/>
      </g>
      <g id="Line_33">
        <line x1="18" y1="22.335184" x2="28.86879" y2="22.335184" stroke="#212121" stroke-linecap="round" stroke-linejoin="round" stroke-width="2"/>
      </g>
    </g>
  </g>
</svg>
